<svg width="182" height="18" viewBox="0 0 182 18" fill="none" xmlns="http://www.w3.org/2000/svg">
<path d="M0.769609 5.52H3.72961V13.88C3.60961 13.9067 3.42294 13.94 3.16961 13.98C2.92961 14.02 2.66961 14.04 2.38961 14.04C1.89628 14.04 1.50294 13.8933 1.20961 13.6C0.916276 13.3067 0.769609 12.9133 0.769609 12.42V5.52ZM3.72961 10.36H0.769609V3.5C0.769609 2.99333 0.916276 2.6 1.20961 2.32C1.50294 2.02667 1.89628 1.88 2.38961 1.88C2.66961 1.88 2.92961 1.9 3.16961 1.94C3.42294 1.98 3.60961 2.01333 3.72961 2.04V10.36ZM2.38961 9.02V6.62H8.42961C8.50961 6.75333 8.58294 6.92 8.64961 7.12C8.71628 7.32 8.74961 7.54 8.74961 7.78C8.74961 8.20667 8.64961 8.52 8.44961 8.72C8.26294 8.92 8.00961 9.02 7.68961 9.02H2.38961ZM2.38961 14.04V11.62H9.08961C9.16961 11.74 9.24294 11.9067 9.30961 12.12C9.37628 12.3333 9.40961 12.56 9.40961 12.8C9.40961 13.2267 9.30961 13.54 9.10961 13.74C8.92294 13.94 8.66961 14.04 8.34961 14.04H2.38961ZM2.38961 4.28V1.88H8.98961C9.08294 2 9.15628 2.16 9.20961 2.36C9.27628 2.56 9.30961 2.78 9.30961 3.02C9.30961 3.44667 9.21628 3.76667 9.02961 3.98C8.84294 4.18 8.58294 4.28 8.24961 4.28H2.38961ZM14.5466 8.04L15.0866 7.98C15.5666 7.35333 16.0333 6.74 16.4866 6.14C16.94 5.54 17.4 4.92 17.8666 4.28C17.92 4.26667 17.9733 4.26 18.0266 4.26C18.08 4.26 18.1266 4.26 18.1666 4.26C18.7133 4.26 19.1466 4.38 19.4666 4.62C19.7866 4.84667 19.9466 5.14667 19.9466 5.52C19.9466 5.81333 19.8733 6.08 19.7266 6.32C19.58 6.54667 19.3266 6.87333 18.9666 7.3C18.6066 7.71333 18.24 8.13333 17.8666 8.56C17.5066 8.97333 17.1466 9.38667 16.7866 9.8L15.8866 10.22C15.4333 10.8733 14.9733 11.5267 14.5066 12.18C14.04 12.8333 13.58 13.4867 13.1266 14.14C13.0733 14.14 13.0066 14.14 12.9266 14.14C12.8466 14.1533 12.78 14.16 12.7266 14.16C12.1533 14.16 11.7066 14.04 11.3866 13.8C11.08 13.5467 10.9266 13.24 10.9266 12.88C10.9266 12.6133 10.9866 12.3733 11.1066 12.16C11.24 11.9467 11.4733 11.6467 11.8066 11.26C12.2466 10.7267 12.7 10.1933 13.1666 9.66C13.6333 9.11333 14.0933 8.57333 14.5466 8.04ZM16.2866 8.28L16.9666 8.64C17.4733 9.32 17.9933 10.0067 18.5266 10.7C19.06 11.38 19.58 12.0667 20.0866 12.76C20.0333 13.2 19.86 13.5533 19.5666 13.82C19.2866 14.0733 18.94 14.2 18.5266 14.2C18.1 14.1867 17.7533 14.06 17.4866 13.82C17.22 13.58 16.9533 13.28 16.6866 12.92C16.3533 12.44 16.0133 11.9533 15.6666 11.46C15.32 10.9667 14.98 10.48 14.6466 10L14.1466 9.66C13.5866 9.00667 13.04 8.36 12.5066 7.72C11.9733 7.06667 11.4333 6.41333 10.8866 5.76C10.98 5.32 11.1666 4.96 11.4466 4.68C11.7266 4.4 12.0666 4.26 12.4666 4.26C12.8533 4.26 13.1533 4.35333 13.3666 4.54C13.58 4.72667 13.8133 4.99333 14.0666 5.34C14.4266 5.80667 14.7866 6.28667 15.1466 6.78C15.52 7.27333 15.9 7.77333 16.2866 8.28ZM26.4805 14.3C25.9739 14.3 25.5205 14.2333 25.1205 14.1C24.7205 13.98 24.3739 13.84 24.0805 13.68V11.18C24.3072 11.3667 24.5805 11.54 24.9005 11.7C25.2339 11.86 25.6072 11.94 26.0205 11.94C26.7539 11.94 27.3205 11.7067 27.7205 11.24C28.1339 10.7733 28.3405 10.0733 28.3405 9.14C28.3405 8.5 28.2472 7.98667 28.0605 7.6C27.8872 7.2 27.6339 6.90667 27.3005 6.72C26.9672 6.53333 26.5739 6.44 26.1205 6.44C25.8139 6.44 25.5339 6.48 25.2805 6.56C25.0405 6.62667 24.8339 6.71333 24.6605 6.82V12.94H21.7205V6.4C21.7205 6.06667 21.7872 5.79333 21.9205 5.58C22.0539 5.35333 22.2605 5.15333 22.5405 4.98C22.9405 4.72667 23.4472 4.52 24.0605 4.36C24.6739 4.18667 25.3605 4.1 26.1205 4.1C27.1472 4.1 28.0539 4.28 28.8405 4.64C29.6405 4.98667 30.2605 5.53333 30.7005 6.28C31.1405 7.01333 31.3605 7.96667 31.3605 9.14C31.3605 10.2733 31.1472 11.22 30.7205 11.98C30.2939 12.74 29.7139 13.32 28.9805 13.72C28.2472 14.1067 27.4139 14.3 26.4805 14.3ZM24.6805 12.18V17.56C24.5472 17.6 24.3605 17.64 24.1205 17.68C23.8805 17.72 23.6205 17.74 23.3405 17.74C22.7805 17.74 22.3672 17.64 22.1005 17.44C21.8472 17.24 21.7205 16.8733 21.7205 16.34V12.18H24.6805ZM36.204 6.98V9.48H33.244V6.62C33.244 6.24667 33.3307 5.93333 33.504 5.68C33.6907 5.41333 33.944 5.18 34.264 4.98C34.704 4.71333 35.2307 4.50667 35.844 4.36C36.4707 4.2 37.124 4.12 37.804 4.12C39.164 4.12 39.844 4.57333 39.844 5.48C39.844 5.69333 39.8107 5.89333 39.744 6.08C39.6907 6.26667 39.624 6.42667 39.544 6.56C39.4107 6.53333 39.244 6.51333 39.044 6.5C38.8573 6.47333 38.6507 6.46 38.424 6.46C38.024 6.46 37.624 6.50667 37.224 6.6C36.824 6.69333 36.484 6.82 36.204 6.98ZM33.244 8.72L36.204 8.78V13.98C36.0707 14.02 35.884 14.0533 35.644 14.08C35.404 14.12 35.144 14.14 34.864 14.14C34.304 14.14 33.8907 14.04 33.624 13.84C33.3707 13.64 33.244 13.28 33.244 12.76V8.72ZM42.3779 10.6L42.2579 8.6L47.2179 7.82C47.1912 7.44667 47.0312 7.1 46.7379 6.78C46.4446 6.46 46.0112 6.3 45.4379 6.3C44.8379 6.3 44.3379 6.50667 43.9379 6.92C43.5379 7.32 43.3246 7.89333 43.2979 8.64L43.3979 10.02C43.5179 10.7533 43.8312 11.28 44.3379 11.6C44.8446 11.9067 45.4446 12.06 46.1379 12.06C46.6979 12.06 47.2246 11.98 47.7179 11.82C48.2112 11.66 48.6112 11.4933 48.9179 11.32C49.1179 11.44 49.2779 11.6067 49.3979 11.82C49.5312 12.0333 49.5979 12.26 49.5979 12.5C49.5979 12.9 49.4379 13.2333 49.1179 13.5C48.8112 13.7667 48.3779 13.9667 47.8179 14.1C47.2712 14.2333 46.6446 14.3 45.9379 14.3C44.9112 14.3 43.9846 14.1067 43.1579 13.72C42.3446 13.3333 41.7046 12.7533 41.2379 11.98C40.7712 11.2067 40.5379 10.24 40.5379 9.08C40.5379 8.22667 40.6712 7.48667 40.9379 6.86C41.2179 6.23333 41.5846 5.72 42.0379 5.32C42.5046 4.90667 43.0246 4.6 43.5979 4.4C44.1846 4.2 44.7912 4.1 45.4179 4.1C46.3379 4.1 47.1379 4.28667 47.8179 4.66C48.5112 5.02 49.0512 5.51333 49.4379 6.14C49.8246 6.76667 50.0179 7.49333 50.0179 8.32C50.0179 8.73333 49.9046 9.04667 49.6779 9.26C49.4512 9.47333 49.1379 9.60667 48.7379 9.66L42.3779 10.6ZM59.6373 11.2C59.6373 12.1733 59.2706 12.94 58.5373 13.5C57.8039 14.0467 56.7373 14.32 55.3373 14.32C54.2439 14.32 53.3439 14.16 52.6373 13.84C51.9306 13.52 51.5773 13.0467 51.5773 12.42C51.5773 12.14 51.6373 11.9 51.7573 11.7C51.8773 11.4867 52.0306 11.32 52.2173 11.2C52.5906 11.4133 53.0239 11.6133 53.5173 11.8C54.0239 11.9733 54.5973 12.06 55.2373 12.06C56.2106 12.06 56.6973 11.78 56.6973 11.22C56.6973 10.98 56.6106 10.7933 56.4373 10.66C56.2639 10.5133 55.9773 10.4067 55.5773 10.34L54.7373 10.14C53.6706 9.91333 52.8706 9.56667 52.3373 9.1C51.8173 8.62 51.5573 7.96667 51.5573 7.14C51.5573 6.20667 51.9306 5.46667 52.6773 4.92C53.4373 4.36 54.4573 4.08 55.7373 4.08C56.3773 4.08 56.9573 4.14667 57.4773 4.28C58.0106 4.4 58.4306 4.59333 58.7373 4.86C59.0439 5.11333 59.1973 5.43333 59.1973 5.82C59.1973 6.08667 59.1439 6.32 59.0373 6.52C58.9306 6.72 58.7906 6.88667 58.6173 7.02C58.4706 6.92667 58.2439 6.82667 57.9373 6.72C57.6439 6.61333 57.3173 6.52667 56.9573 6.46C56.6106 6.39333 56.2839 6.36 55.9773 6.36C55.4973 6.36 55.1239 6.42667 54.8573 6.56C54.5906 6.68 54.4573 6.87333 54.4573 7.14C54.4573 7.31333 54.5306 7.46667 54.6773 7.6C54.8373 7.72 55.1106 7.82 55.4973 7.9L56.2973 8.1C57.4839 8.36667 58.3373 8.75333 58.8573 9.26C59.3773 9.75333 59.6373 10.4 59.6373 11.2ZM69.2662 11.2C69.2662 12.1733 68.8995 12.94 68.1662 13.5C67.4328 14.0467 66.3662 14.32 64.9662 14.32C63.8728 14.32 62.9728 14.16 62.2662 13.84C61.5595 13.52 61.2062 13.0467 61.2062 12.42C61.2062 12.14 61.2662 11.9 61.3862 11.7C61.5062 11.4867 61.6595 11.32 61.8462 11.2C62.2195 11.4133 62.6528 11.6133 63.1462 11.8C63.6528 11.9733 64.2262 12.06 64.8662 12.06C65.8395 12.06 66.3262 11.78 66.3262 11.22C66.3262 10.98 66.2395 10.7933 66.0662 10.66C65.8928 10.5133 65.6062 10.4067 65.2062 10.34L64.3662 10.14C63.2995 9.91333 62.4995 9.56667 61.9662 9.1C61.4462 8.62 61.1862 7.96667 61.1862 7.14C61.1862 6.20667 61.5595 5.46667 62.3062 4.92C63.0662 4.36 64.0862 4.08 65.3662 4.08C66.0062 4.08 66.5862 4.14667 67.1062 4.28C67.6395 4.4 68.0595 4.59333 68.3662 4.86C68.6728 5.11333 68.8262 5.43333 68.8262 5.82C68.8262 6.08667 68.7728 6.32 68.6662 6.52C68.5595 6.72 68.4195 6.88667 68.2462 7.02C68.0995 6.92667 67.8728 6.82667 67.5662 6.72C67.2728 6.61333 66.9462 6.52667 66.5862 6.46C66.2395 6.39333 65.9128 6.36 65.6062 6.36C65.1262 6.36 64.7528 6.42667 64.4862 6.56C64.2195 6.68 64.0862 6.87333 64.0862 7.14C64.0862 7.31333 64.1595 7.46667 64.3062 7.6C64.4662 7.72 64.7395 7.82 65.1262 7.9L65.9262 8.1C67.1128 8.36667 67.9662 8.75333 68.4862 9.26C69.0062 9.75333 69.2662 10.4 69.2662 11.2ZM80.9127 9.2C80.9127 10.24 80.6994 11.1467 80.2727 11.92C79.8594 12.68 79.2727 13.2667 78.5127 13.68C77.7527 14.0933 76.8594 14.3 75.8327 14.3C74.8194 14.3 73.9261 14.1 73.1527 13.7C72.3927 13.2867 71.7994 12.7 71.3727 11.94C70.9594 11.1667 70.7527 10.2533 70.7527 9.2C70.7527 8.14667 70.9661 7.24667 71.3927 6.5C71.8194 5.74 72.4127 5.15333 73.1727 4.74C73.9461 4.31333 74.8327 4.1 75.8327 4.1C76.8461 4.1 77.7327 4.31333 78.4927 4.74C79.2527 5.15333 79.8461 5.74667 80.2727 6.52C80.6994 7.28 80.9127 8.17333 80.9127 9.2ZM75.8327 6.44C75.2061 6.44 74.7061 6.68 74.3327 7.16C73.9727 7.64 73.7927 8.32 73.7927 9.2C73.7927 10.0933 73.9727 10.78 74.3327 11.26C74.6927 11.7267 75.1927 11.96 75.8327 11.96C76.4727 11.96 76.9727 11.72 77.3327 11.24C77.6927 10.76 77.8727 10.08 77.8727 9.2C77.8727 8.33333 77.6927 7.66 77.3327 7.18C76.9727 6.68667 76.4727 6.44 75.8327 6.44ZM91.9191 4.4H91.7991C91.6658 4.82667 91.5058 5.3 91.3191 5.82C91.1458 6.34 90.9658 6.88667 90.7791 7.46C90.5925 8.02 90.4125 8.58 90.2391 9.14L89.8791 10.94C89.7991 11.1933 89.7191 11.46 89.6391 11.74C89.5725 12.02 89.4991 12.2933 89.4191 12.56C89.3391 12.8267 89.2658 13.08 89.1991 13.32C89.1325 13.56 89.0658 13.7867 88.9991 14C88.8525 14.04 88.6858 14.08 88.4991 14.12C88.3125 14.1733 88.0925 14.2 87.8391 14.2C87.2791 14.2 86.8525 14.1 86.5591 13.9C86.2658 13.7 86.1191 13.4067 86.1191 13.02C86.1191 12.86 86.1391 12.6933 86.1791 12.52C86.2325 12.3467 86.2925 12.1467 86.3591 11.92C86.4791 11.48 86.6458 10.9267 86.8591 10.26C87.0858 9.59333 87.3258 8.87333 87.5791 8.1C87.8458 7.31333 88.1125 6.54 88.3791 5.78C88.6591 5.02 88.9125 4.32 89.1391 3.68C89.3791 3.04 89.5725 2.54 89.7191 2.18C89.9058 2.06 90.1991 1.95333 90.5991 1.86C91.0125 1.75333 91.4191 1.7 91.8191 1.7C92.3925 1.7 92.9058 1.78667 93.3591 1.96C93.8125 2.12 94.0991 2.38 94.2191 2.74C94.4725 3.44667 94.7458 4.26667 95.0391 5.2C95.3458 6.12 95.6525 7.08667 95.9591 8.1C96.2658 9.11333 96.5591 10.1 96.8391 11.06C97.1325 12.0067 97.3858 12.86 97.5991 13.62C97.4525 13.78 97.2391 13.9133 96.9591 14.02C96.6791 14.14 96.3458 14.2 95.9591 14.2C95.4125 14.2 95.0258 14.1 94.7991 13.9C94.5725 13.7 94.3991 13.4 94.2791 13L93.6391 10.76L93.2991 9.06C93.1391 8.46 92.9725 7.88 92.7991 7.32C92.6258 6.76 92.4658 6.23333 92.3191 5.74C92.1725 5.23333 92.0391 4.78667 91.9191 4.4ZM88.5391 11.3L89.7191 8.94H94.3991L94.7991 11.3H88.5391ZM107.882 7.38V9.66H104.902V7.76C104.902 7.30667 104.769 6.97333 104.502 6.76C104.235 6.54667 103.902 6.44 103.502 6.44C103.209 6.44 102.942 6.48667 102.702 6.58C102.475 6.66 102.282 6.74667 102.122 6.84V9.66H99.162V6.54C99.162 6.20667 99.2286 5.93333 99.362 5.72C99.5086 5.49333 99.7153 5.29333 99.982 5.12C100.422 4.81333 100.962 4.56667 101.602 4.38C102.242 4.19333 102.909 4.1 103.602 4.1C104.242 4.1 104.842 4.2 105.402 4.4C105.962 4.6 106.449 4.90667 106.862 5.32C106.969 5.4 107.069 5.48667 107.162 5.58C107.269 5.66 107.349 5.75333 107.402 5.86C107.535 6.07333 107.649 6.31333 107.742 6.58C107.835 6.84667 107.882 7.11333 107.882 7.38ZM113.622 7.68V9.66H110.662V7.76C110.662 7.30667 110.535 6.97333 110.282 6.76C110.029 6.54667 109.695 6.44 109.282 6.44C108.975 6.44 108.682 6.50667 108.402 6.64C108.135 6.76 107.902 6.90667 107.702 7.08L106.142 5.36C106.582 5.01333 107.082 4.72 107.642 4.48C108.202 4.22667 108.889 4.1 109.702 4.1C110.395 4.1 111.042 4.22 111.642 4.46C112.242 4.7 112.722 5.08 113.082 5.6C113.442 6.12 113.622 6.81333 113.622 7.68ZM99.162 8.74H102.122V13.98C101.989 14.02 101.802 14.0533 101.562 14.08C101.322 14.12 101.062 14.14 100.782 14.14C100.222 14.14 99.8086 14.04 99.542 13.84C99.2886 13.64 99.162 13.28 99.162 12.76V8.74ZM104.902 8.74H107.882V13.98C107.749 14.02 107.562 14.0533 107.322 14.08C107.082 14.12 106.822 14.14 106.542 14.14C105.969 14.14 105.549 14.04 105.282 13.84C105.029 13.64 104.902 13.28 104.902 12.76V8.74ZM110.662 8.74H113.622V13.98C113.502 14.02 113.322 14.0533 113.082 14.08C112.842 14.12 112.582 14.14 112.302 14.14C111.729 14.14 111.309 14.04 111.042 13.84C110.789 13.64 110.662 13.28 110.662 12.76V8.74ZM117.339 10.6L117.219 8.6L122.179 7.82C122.152 7.44667 121.992 7.1 121.699 6.78C121.405 6.46 120.972 6.3 120.399 6.3C119.799 6.3 119.299 6.50667 118.899 6.92C118.499 7.32 118.285 7.89333 118.259 8.64L118.359 10.02C118.479 10.7533 118.792 11.28 119.299 11.6C119.805 11.9067 120.405 12.06 121.099 12.06C121.659 12.06 122.185 11.98 122.679 11.82C123.172 11.66 123.572 11.4933 123.879 11.32C124.079 11.44 124.239 11.6067 124.359 11.82C124.492 12.0333 124.559 12.26 124.559 12.5C124.559 12.9 124.399 13.2333 124.079 13.5C123.772 13.7667 123.339 13.9667 122.779 14.1C122.232 14.2333 121.605 14.3 120.899 14.3C119.872 14.3 118.945 14.1067 118.119 13.72C117.305 13.3333 116.665 12.7533 116.199 11.98C115.732 11.2067 115.499 10.24 115.499 9.08C115.499 8.22667 115.632 7.48667 115.899 6.86C116.179 6.23333 116.545 5.72 116.999 5.32C117.465 4.90667 117.985 4.6 118.559 4.4C119.145 4.2 119.752 4.1 120.379 4.1C121.299 4.1 122.099 4.28667 122.779 4.66C123.472 5.02 124.012 5.51333 124.399 6.14C124.785 6.76667 124.979 7.49333 124.979 8.32C124.979 8.73333 124.865 9.04667 124.639 9.26C124.412 9.47333 124.099 9.60667 123.699 9.66L117.339 10.6ZM129.759 6.98V9.48H126.799V6.62C126.799 6.24667 126.885 5.93333 127.059 5.68C127.245 5.41333 127.499 5.18 127.819 4.98C128.259 4.71333 128.785 4.50667 129.399 4.36C130.025 4.2 130.679 4.12 131.359 4.12C132.719 4.12 133.399 4.57333 133.399 5.48C133.399 5.69333 133.365 5.89333 133.299 6.08C133.245 6.26667 133.179 6.42667 133.099 6.56C132.965 6.53333 132.799 6.51333 132.599 6.5C132.412 6.47333 132.205 6.46 131.979 6.46C131.579 6.46 131.179 6.50667 130.779 6.6C130.379 6.69333 130.039 6.82 129.759 6.98ZM126.799 8.72L129.759 8.78V13.98C129.625 14.02 129.439 14.0533 129.199 14.08C128.959 14.12 128.699 14.14 128.419 14.14C127.859 14.14 127.445 14.04 127.179 13.84C126.925 13.64 126.799 13.28 126.799 12.76V8.72ZM134.785 1.64C134.785 1.18667 134.938 0.806666 135.245 0.5C135.565 0.193333 135.965 0.0399997 136.445 0.0399997C136.938 0.0399997 137.338 0.193333 137.645 0.5C137.951 0.806666 138.105 1.18667 138.105 1.64C138.105 2.08 137.951 2.46 137.645 2.78C137.338 3.1 136.938 3.26 136.445 3.26C135.965 3.26 135.565 3.1 135.245 2.78C134.938 2.46 134.785 2.08 134.785 1.64ZM134.965 8.72H137.925V13.98C137.805 14.02 137.625 14.0533 137.385 14.08C137.145 14.12 136.885 14.14 136.605 14.14C136.031 14.14 135.611 14.04 135.345 13.84C135.091 13.64 134.965 13.28 134.965 12.76V8.72ZM137.925 10.26H134.965V4.52C135.085 4.48 135.265 4.44 135.505 4.4C135.758 4.36 136.025 4.34 136.305 4.34C136.878 4.34 137.291 4.44 137.545 4.64C137.798 4.82667 137.925 5.19333 137.925 5.74V10.26ZM145.514 6.46C144.794 6.46 144.174 6.7 143.654 7.18C143.147 7.64667 142.894 8.33333 142.894 9.24C142.894 10.1333 143.14 10.8067 143.634 11.26C144.127 11.7133 144.747 11.94 145.494 11.94C145.934 11.94 146.314 11.8867 146.634 11.78C146.967 11.66 147.254 11.5333 147.494 11.4C147.72 11.56 147.894 11.74 148.014 11.94C148.134 12.1267 148.194 12.36 148.194 12.64C148.194 13.1333 147.927 13.5333 147.394 13.84C146.86 14.1467 146.12 14.3 145.174 14.3C144.12 14.3 143.194 14.1133 142.394 13.74C141.594 13.3533 140.974 12.78 140.534 12.02C140.094 11.26 139.874 10.3333 139.874 9.24C139.874 8.08 140.114 7.12667 140.594 6.38C141.074 5.62 141.707 5.05333 142.494 4.68C143.294 4.29333 144.16 4.1 145.094 4.1C146.014 4.1 146.734 4.26667 147.254 4.6C147.787 4.93333 148.054 5.34667 148.054 5.84C148.054 6.08 147.994 6.3 147.874 6.5C147.767 6.68667 147.64 6.85333 147.494 7C147.24 6.86667 146.947 6.74667 146.614 6.64C146.294 6.52 145.927 6.46 145.514 6.46ZM154.02 12.1C154.327 12.1 154.627 12.0733 154.92 12.02C155.227 11.9533 155.447 11.88 155.58 11.8V9.88L153.9 10.04C153.447 10.0667 153.087 10.16 152.82 10.32C152.553 10.48 152.42 10.72 152.42 11.04C152.42 11.36 152.547 11.62 152.8 11.82C153.053 12.0067 153.46 12.1 154.02 12.1ZM153.9 4.1C155.287 4.1 156.393 4.39333 157.22 4.98C158.047 5.55333 158.46 6.44667 158.46 7.66V12.2C158.46 12.5333 158.373 12.8067 158.2 13.02C158.027 13.22 157.807 13.3933 157.54 13.54C157.14 13.78 156.64 13.9667 156.04 14.1C155.453 14.2467 154.78 14.32 154.02 14.32C152.66 14.32 151.573 14.0533 150.76 13.52C149.96 12.9867 149.56 12.1933 149.56 11.14C149.56 10.2333 149.84 9.54 150.4 9.06C150.96 8.56667 151.793 8.26667 152.9 8.16L155.56 7.88V7.64C155.56 7.18667 155.38 6.86 155.02 6.66C154.673 6.46 154.173 6.36 153.52 6.36C153.013 6.36 152.513 6.42 152.02 6.54C151.54 6.66 151.107 6.8 150.72 6.96C150.56 6.85333 150.42 6.69333 150.3 6.48C150.193 6.25333 150.14 6.02 150.14 5.78C150.14 5.22 150.447 4.81333 151.06 4.56C151.447 4.4 151.893 4.28667 152.4 4.22C152.92 4.14 153.42 4.1 153.9 4.1ZM169.924 7.78V9.66H166.944V7.88C166.944 7.38667 166.797 7.02667 166.504 6.8C166.224 6.56 165.851 6.44 165.384 6.44C165.051 6.44 164.744 6.48667 164.464 6.58C164.184 6.66 163.931 6.76 163.704 6.88V9.66H160.744V6.54C160.744 6.20667 160.811 5.93333 160.944 5.72C161.091 5.49333 161.297 5.29333 161.564 5.12C161.991 4.82667 162.537 4.58667 163.204 4.4C163.871 4.2 164.604 4.1 165.404 4.1C166.844 4.1 167.957 4.42 168.744 5.06C169.531 5.68667 169.924 6.59333 169.924 7.78ZM160.744 8.74H163.704V13.98C163.571 14.02 163.384 14.0533 163.144 14.08C162.904 14.12 162.644 14.14 162.364 14.14C161.804 14.14 161.391 14.04 161.124 13.84C160.871 13.64 160.744 13.28 160.744 12.76V8.74ZM166.944 8.74H169.924V13.98C169.791 14.02 169.604 14.0533 169.364 14.08C169.124 14.12 168.864 14.14 168.584 14.14C168.024 14.14 167.611 14.04 167.344 13.84C167.077 13.64 166.944 13.28 166.944 12.76V8.74ZM181.948 9.2C181.948 10.24 181.735 11.1467 181.308 11.92C180.895 12.68 180.308 13.2667 179.548 13.68C178.788 14.0933 177.895 14.3 176.868 14.3C175.855 14.3 174.961 14.1 174.188 13.7C173.428 13.2867 172.835 12.7 172.408 11.94C171.995 11.1667 171.788 10.2533 171.788 9.2C171.788 8.14667 172.001 7.24667 172.428 6.5C172.855 5.74 173.448 5.15333 174.208 4.74C174.981 4.31333 175.868 4.1 176.868 4.1C177.881 4.1 178.768 4.31333 179.528 4.74C180.288 5.15333 180.881 5.74667 181.308 6.52C181.735 7.28 181.948 8.17333 181.948 9.2ZM176.868 6.44C176.241 6.44 175.741 6.68 175.368 7.16C175.008 7.64 174.828 8.32 174.828 9.2C174.828 10.0933 175.008 10.78 175.368 11.26C175.728 11.7267 176.228 11.96 176.868 11.96C177.508 11.96 178.008 11.72 178.368 11.24C178.728 10.76 178.908 10.08 178.908 9.2C178.908 8.33333 178.728 7.66 178.368 7.18C178.008 6.68667 177.508 6.44 176.868 6.44Z" fill="#403937"/>
</svg>
