<svg width="165" height="17" viewBox="0 0 165 17" fill="none" xmlns="http://www.w3.org/2000/svg">
<path d="M0.480547 4.52H3.44055V12.88C3.32055 12.9067 3.13388 12.94 2.88055 12.98C2.64055 13.02 2.38055 13.04 2.10055 13.04C1.60721 13.04 1.21388 12.8933 0.920547 12.6C0.627214 12.3067 0.480547 11.9133 0.480547 11.42V4.52ZM3.44055 9.36H0.480547V2.5C0.480547 1.99333 0.627214 1.6 0.920547 1.32C1.21388 1.02667 1.60721 0.88 2.10055 0.88C2.38055 0.88 2.64055 0.9 2.88055 0.939999C3.13388 0.979999 3.32055 1.01333 3.44055 1.04V9.36ZM2.10055 8.02V5.62H8.14055C8.22055 5.75333 8.29388 5.92 8.36055 6.12C8.42721 6.32 8.46055 6.54 8.46055 6.78C8.46055 7.20667 8.36055 7.52 8.16055 7.72C7.97388 7.92 7.72055 8.02 7.40055 8.02H2.10055ZM2.10055 13.04V10.62H8.80055C8.88055 10.74 8.95388 10.9067 9.02055 11.12C9.08721 11.3333 9.12055 11.56 9.12055 11.8C9.12055 12.2267 9.02055 12.54 8.82055 12.74C8.63388 12.94 8.38055 13.04 8.06055 13.04H2.10055ZM2.10055 3.28V0.88H8.70055C8.79388 1 8.86721 1.16 8.92055 1.36C8.98721 1.56 9.02055 1.78 9.02055 2.02C9.02055 2.44667 8.92721 2.76667 8.74055 2.98C8.55388 3.18 8.29388 3.28 7.96055 3.28H2.10055ZM14.2576 7.04L14.7976 6.98C15.2776 6.35333 15.7442 5.74 16.1976 5.14C16.6509 4.54 17.1109 3.92 17.5776 3.28C17.6309 3.26667 17.6842 3.26 17.7376 3.26C17.7909 3.26 17.8376 3.26 17.8776 3.26C18.4242 3.26 18.8576 3.38 19.1776 3.62C19.4976 3.84667 19.6576 4.14667 19.6576 4.52C19.6576 4.81333 19.5842 5.08 19.4376 5.32C19.2909 5.54667 19.0376 5.87333 18.6776 6.3C18.3176 6.71333 17.9509 7.13333 17.5776 7.56C17.2176 7.97333 16.8576 8.38667 16.4976 8.8L15.5976 9.22C15.1442 9.87333 14.6842 10.5267 14.2176 11.18C13.7509 11.8333 13.2909 12.4867 12.8376 13.14C12.7842 13.14 12.7176 13.14 12.6376 13.14C12.5576 13.1533 12.4909 13.16 12.4376 13.16C11.8642 13.16 11.4176 13.04 11.0976 12.8C10.7909 12.5467 10.6376 12.24 10.6376 11.88C10.6376 11.6133 10.6976 11.3733 10.8176 11.16C10.9509 10.9467 11.1842 10.6467 11.5176 10.26C11.9576 9.72667 12.4109 9.19333 12.8776 8.66C13.3442 8.11333 13.8042 7.57333 14.2576 7.04ZM15.9976 7.28L16.6776 7.64C17.1842 8.32 17.7042 9.00667 18.2376 9.7C18.7709 10.38 19.2909 11.0667 19.7976 11.76C19.7442 12.2 19.5709 12.5533 19.2776 12.82C18.9976 13.0733 18.6509 13.2 18.2376 13.2C17.8109 13.1867 17.4642 13.06 17.1976 12.82C16.9309 12.58 16.6642 12.28 16.3976 11.92C16.0642 11.44 15.7242 10.9533 15.3776 10.46C15.0309 9.96667 14.6909 9.48 14.3576 9L13.8576 8.66C13.2976 8.00667 12.7509 7.36 12.2176 6.72C11.6842 6.06667 11.1442 5.41333 10.5976 4.76C10.6909 4.32 10.8776 3.96 11.1576 3.68C11.4376 3.4 11.7776 3.26 12.1776 3.26C12.5642 3.26 12.8642 3.35333 13.0776 3.54C13.2909 3.72667 13.5242 3.99333 13.7776 4.34C14.1376 4.80667 14.4976 5.28667 14.8576 5.78C15.2309 6.27333 15.6109 6.77333 15.9976 7.28ZM26.1915 13.3C25.6848 13.3 25.2315 13.2333 24.8315 13.1C24.4315 12.98 24.0848 12.84 23.7915 12.68V10.18C24.0182 10.3667 24.2915 10.54 24.6115 10.7C24.9448 10.86 25.3182 10.94 25.7315 10.94C26.4648 10.94 27.0315 10.7067 27.4315 10.24C27.8448 9.77333 28.0515 9.07333 28.0515 8.14C28.0515 7.5 27.9582 6.98667 27.7715 6.6C27.5982 6.2 27.3448 5.90667 27.0115 5.72C26.6782 5.53333 26.2848 5.44 25.8315 5.44C25.5248 5.44 25.2448 5.48 24.9915 5.56C24.7515 5.62667 24.5448 5.71333 24.3715 5.82V11.94H21.4315V5.4C21.4315 5.06667 21.4982 4.79333 21.6315 4.58C21.7648 4.35333 21.9715 4.15333 22.2515 3.98C22.6515 3.72667 23.1582 3.52 23.7715 3.36C24.3848 3.18667 25.0715 3.1 25.8315 3.1C26.8582 3.1 27.7648 3.28 28.5515 3.64C29.3515 3.98667 29.9715 4.53333 30.4115 5.28C30.8515 6.01333 31.0715 6.96667 31.0715 8.14C31.0715 9.27333 30.8582 10.22 30.4315 10.98C30.0048 11.74 29.4248 12.32 28.6915 12.72C27.9582 13.1067 27.1248 13.3 26.1915 13.3ZM24.3915 11.18V16.56C24.2582 16.6 24.0715 16.64 23.8315 16.68C23.5915 16.72 23.3315 16.74 23.0515 16.74C22.4915 16.74 22.0782 16.64 21.8115 16.44C21.5582 16.24 21.4315 15.8733 21.4315 15.34V11.18H24.3915ZM35.9149 5.98V8.48H32.9549V5.62C32.9549 5.24667 33.0416 4.93333 33.2149 4.68C33.4016 4.41333 33.6549 4.18 33.9749 3.98C34.4149 3.71333 34.9416 3.50667 35.5549 3.36C36.1816 3.2 36.8349 3.12 37.5149 3.12C38.8749 3.12 39.5549 3.57333 39.5549 4.48C39.5549 4.69333 39.5216 4.89333 39.4549 5.08C39.4016 5.26667 39.3349 5.42667 39.2549 5.56C39.1216 5.53333 38.9549 5.51333 38.7549 5.5C38.5683 5.47333 38.3616 5.46 38.1349 5.46C37.7349 5.46 37.3349 5.50667 36.9349 5.6C36.5349 5.69333 36.1949 5.82 35.9149 5.98ZM32.9549 7.72L35.9149 7.78V12.98C35.7816 13.02 35.5949 13.0533 35.3549 13.08C35.1149 13.12 34.8549 13.14 34.5749 13.14C34.0149 13.14 33.6016 13.04 33.3349 12.84C33.0816 12.64 32.9549 12.28 32.9549 11.76V7.72ZM42.0888 9.6L41.9688 7.6L46.9288 6.82C46.9022 6.44667 46.7422 6.1 46.4488 5.78C46.1555 5.46 45.7222 5.3 45.1488 5.3C44.5488 5.3 44.0488 5.50667 43.6488 5.92C43.2488 6.32 43.0355 6.89333 43.0088 7.64L43.1088 9.02C43.2288 9.75333 43.5422 10.28 44.0488 10.6C44.5555 10.9067 45.1555 11.06 45.8488 11.06C46.4088 11.06 46.9355 10.98 47.4288 10.82C47.9222 10.66 48.3222 10.4933 48.6288 10.32C48.8288 10.44 48.9888 10.6067 49.1088 10.82C49.2422 11.0333 49.3088 11.26 49.3088 11.5C49.3088 11.9 49.1488 12.2333 48.8288 12.5C48.5222 12.7667 48.0888 12.9667 47.5288 13.1C46.9822 13.2333 46.3555 13.3 45.6488 13.3C44.6222 13.3 43.6955 13.1067 42.8688 12.72C42.0555 12.3333 41.4155 11.7533 40.9488 10.98C40.4822 10.2067 40.2488 9.24 40.2488 8.08C40.2488 7.22667 40.3822 6.48667 40.6488 5.86C40.9288 5.23333 41.2955 4.72 41.7488 4.32C42.2155 3.90667 42.7355 3.6 43.3088 3.4C43.8955 3.2 44.5022 3.1 45.1288 3.1C46.0488 3.1 46.8488 3.28667 47.5288 3.66C48.2222 4.02 48.7622 4.51333 49.1488 5.14C49.5355 5.76667 49.7288 6.49333 49.7288 7.32C49.7288 7.73333 49.6155 8.04667 49.3888 8.26C49.1622 8.47333 48.8488 8.60667 48.4488 8.66L42.0888 9.6ZM59.3482 10.2C59.3482 11.1733 58.9815 11.94 58.2482 12.5C57.5149 13.0467 56.4482 13.32 55.0482 13.32C53.9549 13.32 53.0549 13.16 52.3482 12.84C51.6415 12.52 51.2882 12.0467 51.2882 11.42C51.2882 11.14 51.3482 10.9 51.4682 10.7C51.5882 10.4867 51.7415 10.32 51.9282 10.2C52.3015 10.4133 52.7349 10.6133 53.2282 10.8C53.7349 10.9733 54.3082 11.06 54.9482 11.06C55.9215 11.06 56.4082 10.78 56.4082 10.22C56.4082 9.98 56.3215 9.79333 56.1482 9.66C55.9749 9.51333 55.6882 9.40667 55.2882 9.34L54.4482 9.14C53.3815 8.91333 52.5815 8.56667 52.0482 8.1C51.5282 7.62 51.2682 6.96667 51.2682 6.14C51.2682 5.20667 51.6415 4.46667 52.3882 3.92C53.1482 3.36 54.1682 3.08 55.4482 3.08C56.0882 3.08 56.6682 3.14667 57.1882 3.28C57.7215 3.4 58.1415 3.59333 58.4482 3.86C58.7549 4.11333 58.9082 4.43333 58.9082 4.82C58.9082 5.08667 58.8549 5.32 58.7482 5.52C58.6415 5.72 58.5015 5.88667 58.3282 6.02C58.1815 5.92667 57.9549 5.82667 57.6482 5.72C57.3549 5.61333 57.0282 5.52667 56.6682 5.46C56.3215 5.39333 55.9949 5.36 55.6882 5.36C55.2082 5.36 54.8349 5.42667 54.5682 5.56C54.3015 5.68 54.1682 5.87333 54.1682 6.14C54.1682 6.31333 54.2415 6.46667 54.3882 6.6C54.5482 6.72 54.8215 6.82 55.2082 6.9L56.0082 7.1C57.1949 7.36667 58.0482 7.75333 58.5682 8.26C59.0882 8.75333 59.3482 9.4 59.3482 10.2ZM68.9771 10.2C68.9771 11.1733 68.6104 11.94 67.8771 12.5C67.1438 13.0467 66.0771 13.32 64.6771 13.32C63.5838 13.32 62.6838 13.16 61.9771 12.84C61.2704 12.52 60.9171 12.0467 60.9171 11.42C60.9171 11.14 60.9771 10.9 61.0971 10.7C61.2171 10.4867 61.3704 10.32 61.5571 10.2C61.9304 10.4133 62.3638 10.6133 62.8571 10.8C63.3638 10.9733 63.9371 11.06 64.5771 11.06C65.5504 11.06 66.0371 10.78 66.0371 10.22C66.0371 9.98 65.9504 9.79333 65.7771 9.66C65.6038 9.51333 65.3171 9.40667 64.9171 9.34L64.0771 9.14C63.0104 8.91333 62.2104 8.56667 61.6771 8.1C61.1571 7.62 60.8971 6.96667 60.8971 6.14C60.8971 5.20667 61.2704 4.46667 62.0171 3.92C62.7771 3.36 63.7971 3.08 65.0771 3.08C65.7171 3.08 66.2971 3.14667 66.8171 3.28C67.3504 3.4 67.7704 3.59333 68.0771 3.86C68.3838 4.11333 68.5371 4.43333 68.5371 4.82C68.5371 5.08667 68.4838 5.32 68.3771 5.52C68.2704 5.72 68.1304 5.88667 67.9571 6.02C67.8104 5.92667 67.5838 5.82667 67.2771 5.72C66.9838 5.61333 66.6571 5.52667 66.2971 5.46C65.9504 5.39333 65.6238 5.36 65.3171 5.36C64.8371 5.36 64.4638 5.42667 64.1971 5.56C63.9304 5.68 63.7971 5.87333 63.7971 6.14C63.7971 6.31333 63.8704 6.46667 64.0171 6.6C64.1771 6.72 64.4504 6.82 64.8371 6.9L65.6371 7.1C66.8238 7.36667 67.6771 7.75333 68.1971 8.26C68.7171 8.75333 68.9771 9.4 68.9771 10.2ZM80.6237 8.2C80.6237 9.24 80.4103 10.1467 79.9837 10.92C79.5703 11.68 78.9837 12.2667 78.2237 12.68C77.4637 13.0933 76.5703 13.3 75.5437 13.3C74.5303 13.3 73.637 13.1 72.8637 12.7C72.1037 12.2867 71.5103 11.7 71.0837 10.94C70.6703 10.1667 70.4637 9.25333 70.4637 8.2C70.4637 7.14667 70.677 6.24667 71.1037 5.5C71.5303 4.74 72.1237 4.15333 72.8837 3.74C73.657 3.31333 74.5437 3.1 75.5437 3.1C76.557 3.1 77.4437 3.31333 78.2037 3.74C78.9637 4.15333 79.557 4.74667 79.9837 5.52C80.4103 6.28 80.6237 7.17333 80.6237 8.2ZM75.5437 5.44C74.917 5.44 74.417 5.68 74.0437 6.16C73.6837 6.64 73.5037 7.32 73.5037 8.2C73.5037 9.09333 73.6837 9.78 74.0437 10.26C74.4037 10.7267 74.9037 10.96 75.5437 10.96C76.1837 10.96 76.6837 10.72 77.0437 10.24C77.4037 9.76 77.5837 9.08 77.5837 8.2C77.5837 7.33333 77.4037 6.66 77.0437 6.18C76.6837 5.68667 76.1837 5.44 75.5437 5.44ZM96.1101 2.52C96.1101 2.82667 96.0301 3.09333 95.8701 3.32C95.7101 3.54667 95.5301 3.72667 95.3301 3.86C94.9967 3.63333 94.6167 3.43333 94.1901 3.26C93.7767 3.08667 93.2834 3 92.7101 3C92.0034 3 91.3901 3.15333 90.8701 3.46C90.3501 3.76667 89.9501 4.21333 89.6701 4.8C89.4034 5.38667 89.2701 6.1 89.2701 6.94C89.2701 8.22 89.5901 9.19333 90.2301 9.86C90.8701 10.5267 91.7501 10.86 92.8701 10.86C93.4434 10.86 93.9367 10.78 94.3501 10.62C94.7634 10.46 95.1434 10.28 95.4901 10.08C95.6901 10.2267 95.8501 10.42 95.9701 10.66C96.1034 10.8867 96.1701 11.1533 96.1701 11.46C96.1701 11.7267 96.0967 11.9733 95.9501 12.2C95.8167 12.4267 95.5834 12.62 95.2501 12.78C94.9967 12.9133 94.6367 13.04 94.1701 13.16C93.7034 13.28 93.1367 13.34 92.4701 13.34C91.2967 13.34 90.2234 13.1133 89.2501 12.66C88.2901 12.1933 87.5301 11.4933 86.9701 10.56C86.4101 9.61333 86.1301 8.40667 86.1301 6.94C86.1301 5.55333 86.4034 4.38667 86.9501 3.44C87.5101 2.48 88.2567 1.75333 89.1901 1.26C90.1234 0.766666 91.1567 0.52 92.2901 0.52C93.0767 0.52 93.7567 0.613333 94.3301 0.8C94.9034 0.973333 95.3434 1.21333 95.6501 1.52C95.9567 1.81333 96.1101 2.14667 96.1101 2.52ZM100.817 5.98V8.48H97.8573V5.62C97.8573 5.24667 97.9439 4.93333 98.1173 4.68C98.3039 4.41333 98.5573 4.18 98.8773 3.98C99.3173 3.71333 99.8439 3.50667 100.457 3.36C101.084 3.2 101.737 3.12 102.417 3.12C103.777 3.12 104.457 3.57333 104.457 4.48C104.457 4.69333 104.424 4.89333 104.357 5.08C104.304 5.26667 104.237 5.42667 104.157 5.56C104.024 5.53333 103.857 5.51333 103.657 5.5C103.471 5.47333 103.264 5.46 103.037 5.46C102.637 5.46 102.237 5.50667 101.837 5.6C101.437 5.69333 101.097 5.82 100.817 5.98ZM97.8573 7.72L100.817 7.78V12.98C100.684 13.02 100.497 13.0533 100.257 13.08C100.017 13.12 99.7573 13.14 99.4773 13.14C98.9173 13.14 98.5039 13.04 98.2373 12.84C97.9839 12.64 97.8573 12.28 97.8573 11.76V7.72ZM106.991 9.6L106.871 7.6L111.831 6.82C111.805 6.44667 111.645 6.1 111.351 5.78C111.058 5.46 110.625 5.3 110.051 5.3C109.451 5.3 108.951 5.50667 108.551 5.92C108.151 6.32 107.938 6.89333 107.911 7.64L108.011 9.02C108.131 9.75333 108.445 10.28 108.951 10.6C109.458 10.9067 110.058 11.06 110.751 11.06C111.311 11.06 111.838 10.98 112.331 10.82C112.825 10.66 113.225 10.4933 113.531 10.32C113.731 10.44 113.891 10.6067 114.011 10.82C114.145 11.0333 114.211 11.26 114.211 11.5C114.211 11.9 114.051 12.2333 113.731 12.5C113.425 12.7667 112.991 12.9667 112.431 13.1C111.885 13.2333 111.258 13.3 110.551 13.3C109.525 13.3 108.598 13.1067 107.771 12.72C106.958 12.3333 106.318 11.7533 105.851 10.98C105.385 10.2067 105.151 9.24 105.151 8.08C105.151 7.22667 105.285 6.48667 105.551 5.86C105.831 5.23333 106.198 4.72 106.651 4.32C107.118 3.90667 107.638 3.6 108.211 3.4C108.798 3.2 109.405 3.1 110.031 3.1C110.951 3.1 111.751 3.28667 112.431 3.66C113.125 4.02 113.665 4.51333 114.051 5.14C114.438 5.76667 114.631 6.49333 114.631 7.32C114.631 7.73333 114.518 8.04667 114.291 8.26C114.065 8.47333 113.751 8.60667 113.351 8.66L106.991 9.6ZM125.171 6.38V8.66H122.191V6.76C122.191 6.30667 122.058 5.97333 121.791 5.76C121.524 5.54667 121.191 5.44 120.791 5.44C120.498 5.44 120.231 5.48667 119.991 5.58C119.764 5.66 119.571 5.74667 119.411 5.84V8.66H116.451V5.54C116.451 5.20667 116.518 4.93333 116.651 4.72C116.798 4.49333 117.004 4.29333 117.271 4.12C117.711 3.81333 118.251 3.56667 118.891 3.38C119.531 3.19333 120.198 3.1 120.891 3.1C121.531 3.1 122.131 3.2 122.691 3.4C123.251 3.6 123.738 3.90667 124.151 4.32C124.258 4.4 124.358 4.48667 124.451 4.58C124.558 4.66 124.638 4.75333 124.691 4.86C124.824 5.07333 124.938 5.31333 125.031 5.58C125.124 5.84667 125.171 6.11333 125.171 6.38ZM130.911 6.68V8.66H127.951V6.76C127.951 6.30667 127.824 5.97333 127.571 5.76C127.318 5.54667 126.984 5.44 126.571 5.44C126.264 5.44 125.971 5.50667 125.691 5.64C125.424 5.76 125.191 5.90667 124.991 6.08L123.431 4.36C123.871 4.01333 124.371 3.72 124.931 3.48C125.491 3.22667 126.178 3.1 126.991 3.1C127.684 3.1 128.331 3.22 128.931 3.46C129.531 3.7 130.011 4.08 130.371 4.6C130.731 5.12 130.911 5.81333 130.911 6.68ZM116.451 7.74H119.411V12.98C119.278 13.02 119.091 13.0533 118.851 13.08C118.611 13.12 118.351 13.14 118.071 13.14C117.511 13.14 117.098 13.04 116.831 12.84C116.578 12.64 116.451 12.28 116.451 11.76V7.74ZM122.191 7.74H125.171V12.98C125.038 13.02 124.851 13.0533 124.611 13.08C124.371 13.12 124.111 13.14 123.831 13.14C123.258 13.14 122.838 13.04 122.571 12.84C122.318 12.64 122.191 12.28 122.191 11.76V7.74ZM127.951 7.74H130.911V12.98C130.791 13.02 130.611 13.0533 130.371 13.08C130.131 13.12 129.871 13.14 129.591 13.14C129.018 13.14 128.598 13.04 128.331 12.84C128.078 12.64 127.951 12.28 127.951 11.76V7.74ZM142.948 8.2C142.948 9.24 142.735 10.1467 142.308 10.92C141.895 11.68 141.308 12.2667 140.548 12.68C139.788 13.0933 138.895 13.3 137.868 13.3C136.855 13.3 135.961 13.1 135.188 12.7C134.428 12.2867 133.835 11.7 133.408 10.94C132.995 10.1667 132.788 9.25333 132.788 8.2C132.788 7.14667 133.001 6.24667 133.428 5.5C133.855 4.74 134.448 4.15333 135.208 3.74C135.981 3.31333 136.868 3.1 137.868 3.1C138.881 3.1 139.768 3.31333 140.528 3.74C141.288 4.15333 141.881 4.74667 142.308 5.52C142.735 6.28 142.948 7.17333 142.948 8.2ZM137.868 5.44C137.241 5.44 136.741 5.68 136.368 6.16C136.008 6.64 135.828 7.32 135.828 8.2C135.828 9.09333 136.008 9.78 136.368 10.26C136.728 10.7267 137.228 10.96 137.868 10.96C138.508 10.96 139.008 10.72 139.368 10.24C139.728 9.76 139.908 9.08 139.908 8.2C139.908 7.33333 139.728 6.66 139.368 6.18C139.008 5.68667 138.508 5.44 137.868 5.44ZM152.59 10.2C152.59 11.1733 152.224 11.94 151.49 12.5C150.757 13.0467 149.69 13.32 148.29 13.32C147.197 13.32 146.297 13.16 145.59 12.84C144.884 12.52 144.53 12.0467 144.53 11.42C144.53 11.14 144.59 10.9 144.71 10.7C144.83 10.4867 144.984 10.32 145.17 10.2C145.544 10.4133 145.977 10.6133 146.47 10.8C146.977 10.9733 147.55 11.06 148.19 11.06C149.164 11.06 149.65 10.78 149.65 10.22C149.65 9.98 149.564 9.79333 149.39 9.66C149.217 9.51333 148.93 9.40667 148.53 9.34L147.69 9.14C146.624 8.91333 145.824 8.56667 145.29 8.1C144.77 7.62 144.51 6.96667 144.51 6.14C144.51 5.20667 144.884 4.46667 145.63 3.92C146.39 3.36 147.41 3.08 148.69 3.08C149.33 3.08 149.91 3.14667 150.43 3.28C150.964 3.4 151.384 3.59333 151.69 3.86C151.997 4.11333 152.15 4.43333 152.15 4.82C152.15 5.08667 152.097 5.32 151.99 5.52C151.884 5.72 151.744 5.88667 151.57 6.02C151.424 5.92667 151.197 5.82667 150.89 5.72C150.597 5.61333 150.27 5.52667 149.91 5.46C149.564 5.39333 149.237 5.36 148.93 5.36C148.45 5.36 148.077 5.42667 147.81 5.56C147.544 5.68 147.41 5.87333 147.41 6.14C147.41 6.31333 147.484 6.46667 147.63 6.6C147.79 6.72 148.064 6.82 148.45 6.9L149.25 7.1C150.437 7.36667 151.29 7.75333 151.81 8.26C152.33 8.75333 152.59 9.4 152.59 10.2ZM164.237 8.2C164.237 9.24 164.024 10.1467 163.597 10.92C163.184 11.68 162.597 12.2667 161.837 12.68C161.077 13.0933 160.184 13.3 159.157 13.3C158.144 13.3 157.25 13.1 156.477 12.7C155.717 12.2867 155.124 11.7 154.697 10.94C154.284 10.1667 154.077 9.25333 154.077 8.2C154.077 7.14667 154.29 6.24667 154.717 5.5C155.144 4.74 155.737 4.15333 156.497 3.74C157.27 3.31333 158.157 3.1 159.157 3.1C160.17 3.1 161.057 3.31333 161.817 3.74C162.577 4.15333 163.17 4.74667 163.597 5.52C164.024 6.28 164.237 7.17333 164.237 8.2ZM159.157 5.44C158.53 5.44 158.03 5.68 157.657 6.16C157.297 6.64 157.117 7.32 157.117 8.2C157.117 9.09333 157.297 9.78 157.657 10.26C158.017 10.7267 158.517 10.96 159.157 10.96C159.797 10.96 160.297 10.72 160.657 10.24C161.017 9.76 161.197 9.08 161.197 8.2C161.197 7.33333 161.017 6.66 160.657 6.18C160.297 5.68667 159.797 5.44 159.157 5.44Z" fill="#403937"/>
</svg>
