<svg width="83" height="15" viewBox="0 0 83 15" fill="none" xmlns="http://www.w3.org/2000/svg">
<path d="M0.369219 5.54H3.40922V13.98C3.28922 14.02 3.09589 14.0533 2.82922 14.08C2.56255 14.12 2.28922 14.14 2.00922 14.14C1.40922 14.14 0.982552 14.0333 0.729219 13.82C0.489219 13.6067 0.369219 13.2333 0.369219 12.7V5.54ZM3.40922 9.38H0.369219V1.84C0.502552 1.81333 0.702552 1.78 0.969219 1.74C1.24922 1.7 1.51589 1.68 1.76922 1.68C2.35589 1.68 2.77589 1.78 3.02922 1.98C3.28255 2.18 3.40922 2.56 3.40922 3.12V9.38ZM7.82922 5.54H10.8892V13.98C10.7559 14.02 10.5559 14.0533 10.2892 14.08C10.0226 14.12 9.74922 14.14 9.46922 14.14C8.86922 14.14 8.44255 14.0333 8.18922 13.82C7.94922 13.6067 7.82922 13.2333 7.82922 12.7V5.54ZM10.8892 9.38H7.82922V1.84C7.97589 1.81333 8.18255 1.78 8.44922 1.74C8.71589 1.7 8.98255 1.68 9.24922 1.68C9.82255 1.68 10.2359 1.78667 10.4892 2C10.7559 2.2 10.8892 2.58 10.8892 3.14V9.38ZM9.56922 9.12H1.74922V6.7H9.56922V9.12ZM17.4086 12.1C17.7153 12.1 18.0153 12.0733 18.3086 12.02C18.6153 11.9533 18.8353 11.88 18.9686 11.8V9.88L17.2886 10.04C16.8353 10.0667 16.4753 10.16 16.2086 10.32C15.9419 10.48 15.8086 10.72 15.8086 11.04C15.8086 11.36 15.9353 11.62 16.1886 11.82C16.4419 12.0067 16.8486 12.1 17.4086 12.1ZM17.2886 4.1C18.6753 4.1 19.7819 4.39333 20.6086 4.98C21.4353 5.55333 21.8486 6.44667 21.8486 7.66V12.2C21.8486 12.5333 21.7619 12.8067 21.5886 13.02C21.4153 13.22 21.1953 13.3933 20.9286 13.54C20.5286 13.78 20.0286 13.9667 19.4286 14.1C18.8419 14.2467 18.1686 14.32 17.4086 14.32C16.0486 14.32 14.9619 14.0533 14.1486 13.52C13.3486 12.9867 12.9486 12.1933 12.9486 11.14C12.9486 10.2333 13.2286 9.54 13.7886 9.06C14.3486 8.56667 15.1819 8.26667 16.2886 8.16L18.9486 7.88V7.64C18.9486 7.18667 18.7686 6.86 18.4086 6.66C18.0619 6.46 17.5619 6.36 16.9086 6.36C16.4019 6.36 15.9019 6.42 15.4086 6.54C14.9286 6.66 14.4953 6.8 14.1086 6.96C13.9486 6.85333 13.8086 6.69333 13.6886 6.48C13.5819 6.25333 13.5286 6.02 13.5286 5.78C13.5286 5.22 13.8353 4.81333 14.4486 4.56C14.8353 4.4 15.2819 4.28667 15.7886 4.22C16.3086 4.14 16.8086 4.1 17.2886 4.1ZM31.4183 4.2C31.8316 4.2 32.1716 4.29333 32.4383 4.48C32.7183 4.65333 32.8583 4.95333 32.8583 5.38C32.8583 5.62 32.7916 5.99333 32.6583 6.5C32.5249 7.00667 32.3449 7.59333 32.1183 8.26C31.9049 8.92667 31.6649 9.60667 31.3983 10.3C31.1316 10.9933 30.8649 11.6467 30.5983 12.26C30.3316 12.86 30.0916 13.36 29.8783 13.76C29.7316 13.8667 29.4983 13.96 29.1783 14.04C28.8583 14.1333 28.5049 14.18 28.1183 14.18C27.6649 14.18 27.2716 14.12 26.9383 14C26.6183 13.88 26.3916 13.6933 26.2583 13.44C26.1116 13.16 25.9316 12.7667 25.7183 12.26C25.5049 11.7533 25.2783 11.18 25.0383 10.54C24.7983 9.88667 24.5583 9.21333 24.3183 8.52C24.0783 7.82667 23.8583 7.16 23.6583 6.52C23.4583 5.88 23.2983 5.32 23.1783 4.84C23.3516 4.66667 23.5716 4.52 23.8383 4.4C24.1183 4.26667 24.4183 4.2 24.7383 4.2C25.1516 4.2 25.4916 4.28667 25.7583 4.46C26.0249 4.63333 26.2183 4.96 26.3383 5.44L27.2383 8.62C27.3449 8.99333 27.4516 9.36667 27.5583 9.74C27.6783 10.1133 27.7849 10.46 27.8783 10.78C27.9716 11.1 28.0516 11.3733 28.1183 11.6H28.1983C28.5183 10.52 28.8383 9.36667 29.1583 8.14C29.4916 6.9 29.7849 5.69333 30.0383 4.52C30.4383 4.30667 30.8983 4.2 31.4183 4.2ZM38.307 12.1C38.6137 12.1 38.9137 12.0733 39.207 12.02C39.5137 11.9533 39.7337 11.88 39.867 11.8V9.88L38.187 10.04C37.7337 10.0667 37.3737 10.16 37.107 10.32C36.8404 10.48 36.707 10.72 36.707 11.04C36.707 11.36 36.8337 11.62 37.087 11.82C37.3404 12.0067 37.747 12.1 38.307 12.1ZM38.187 4.1C39.5737 4.1 40.6804 4.39333 41.507 4.98C42.3337 5.55333 42.747 6.44667 42.747 7.66V12.2C42.747 12.5333 42.6604 12.8067 42.487 13.02C42.3137 13.22 42.0937 13.3933 41.827 13.54C41.427 13.78 40.927 13.9667 40.327 14.1C39.7404 14.2467 39.067 14.32 38.307 14.32C36.947 14.32 35.8604 14.0533 35.047 13.52C34.247 12.9867 33.847 12.1933 33.847 11.14C33.847 10.2333 34.127 9.54 34.687 9.06C35.247 8.56667 36.0804 8.26667 37.187 8.16L39.847 7.88V7.64C39.847 7.18667 39.667 6.86 39.307 6.66C38.9604 6.46 38.4604 6.36 37.807 6.36C37.3004 6.36 36.8004 6.42 36.307 6.54C35.827 6.66 35.3937 6.8 35.007 6.96C34.847 6.85333 34.707 6.69333 34.587 6.48C34.4804 6.25333 34.427 6.02 34.427 5.78C34.427 5.22 34.7337 4.81333 35.347 4.56C35.7337 4.4 36.1804 4.28667 36.687 4.22C37.207 4.14 37.707 4.1 38.187 4.1ZM44.9311 1.64C44.9311 1.18667 45.0844 0.806666 45.3911 0.5C45.7111 0.193333 46.1111 0.0399997 46.5911 0.0399997C47.0844 0.0399997 47.4844 0.193333 47.7911 0.5C48.0978 0.806666 48.2511 1.18667 48.2511 1.64C48.2511 2.08 48.0978 2.46 47.7911 2.78C47.4844 3.1 47.0844 3.26 46.5911 3.26C46.1111 3.26 45.7111 3.1 45.3911 2.78C45.0844 2.46 44.9311 2.08 44.9311 1.64ZM45.1111 8.72H48.0711V13.98C47.9511 14.02 47.7711 14.0533 47.5311 14.08C47.2911 14.12 47.0311 14.14 46.7511 14.14C46.1778 14.14 45.7578 14.04 45.4911 13.84C45.2378 13.64 45.1111 13.28 45.1111 12.76V8.72ZM48.0711 10.26H45.1111V4.52C45.2311 4.48 45.4111 4.44 45.6511 4.4C45.9044 4.36 46.1711 4.34 46.4511 4.34C47.0244 4.34 47.4378 4.44 47.6911 4.64C47.9444 4.82667 48.0711 5.19333 48.0711 5.74V10.26ZM54.4203 12.1C54.727 12.1 55.027 12.0733 55.3203 12.02C55.627 11.9533 55.847 11.88 55.9803 11.8V9.88L54.3003 10.04C53.847 10.0667 53.487 10.16 53.2203 10.32C52.9536 10.48 52.8203 10.72 52.8203 11.04C52.8203 11.36 52.947 11.62 53.2003 11.82C53.4536 12.0067 53.8603 12.1 54.4203 12.1ZM54.3003 4.1C55.687 4.1 56.7936 4.39333 57.6203 4.98C58.447 5.55333 58.8603 6.44667 58.8603 7.66V12.2C58.8603 12.5333 58.7736 12.8067 58.6003 13.02C58.427 13.22 58.207 13.3933 57.9403 13.54C57.5403 13.78 57.0403 13.9667 56.4403 14.1C55.8536 14.2467 55.1803 14.32 54.4203 14.32C53.0603 14.32 51.9736 14.0533 51.1603 13.52C50.3603 12.9867 49.9603 12.1933 49.9603 11.14C49.9603 10.2333 50.2403 9.54 50.8003 9.06C51.3603 8.56667 52.1936 8.26667 53.3003 8.16L55.9603 7.88V7.64C55.9603 7.18667 55.7803 6.86 55.4203 6.66C55.0736 6.46 54.5736 6.36 53.9203 6.36C53.4136 6.36 52.9136 6.42 52.4203 6.54C51.9403 6.66 51.507 6.8 51.1203 6.96C50.9603 6.85333 50.8203 6.69333 50.7003 6.48C50.5936 6.25333 50.5403 6.02 50.5403 5.78C50.5403 5.22 50.847 4.81333 51.4603 4.56C51.847 4.4 52.2936 4.28667 52.8003 4.22C53.3203 4.14 53.8203 4.1 54.3003 4.1ZM70.3244 7.78V9.66H67.3444V7.88C67.3444 7.38667 67.1977 7.02667 66.9044 6.8C66.6244 6.56 66.251 6.44 65.7844 6.44C65.451 6.44 65.1444 6.48667 64.8644 6.58C64.5844 6.66 64.331 6.76 64.1044 6.88V9.66H61.1444V6.54C61.1444 6.20667 61.211 5.93333 61.3444 5.72C61.491 5.49333 61.6977 5.29333 61.9644 5.12C62.391 4.82667 62.9377 4.58667 63.6044 4.4C64.271 4.2 65.0044 4.1 65.8044 4.1C67.2444 4.1 68.3577 4.42 69.1444 5.06C69.931 5.68667 70.3244 6.59333 70.3244 7.78ZM61.1444 8.74H64.1044V13.98C63.971 14.02 63.7844 14.0533 63.5444 14.08C63.3044 14.12 63.0444 14.14 62.7644 14.14C62.2044 14.14 61.791 14.04 61.5244 13.84C61.271 13.64 61.1444 13.28 61.1444 12.76V8.74ZM67.3444 8.74H70.3244V13.98C70.191 14.02 70.0044 14.0533 69.7644 14.08C69.5244 14.12 69.2644 14.14 68.9844 14.14C68.4244 14.14 68.011 14.04 67.7444 13.84C67.4777 13.64 67.3444 13.28 67.3444 12.76V8.74ZM82.3483 9.2C82.3483 10.24 82.1349 11.1467 81.7083 11.92C81.2949 12.68 80.7083 13.2667 79.9483 13.68C79.1883 14.0933 78.2949 14.3 77.2683 14.3C76.2549 14.3 75.3616 14.1 74.5883 13.7C73.8283 13.2867 73.2349 12.7 72.8083 11.94C72.3949 11.1667 72.1883 10.2533 72.1883 9.2C72.1883 8.14667 72.4016 7.24667 72.8283 6.5C73.2549 5.74 73.8483 5.15333 74.6083 4.74C75.3816 4.31333 76.2683 4.1 77.2683 4.1C78.2816 4.1 79.1683 4.31333 79.9283 4.74C80.6883 5.15333 81.2816 5.74667 81.7083 6.52C82.1349 7.28 82.3483 8.17333 82.3483 9.2ZM77.2683 6.44C76.6416 6.44 76.1416 6.68 75.7683 7.16C75.4083 7.64 75.2283 8.32 75.2283 9.2C75.2283 10.0933 75.4083 10.78 75.7683 11.26C76.1283 11.7267 76.6283 11.96 77.2683 11.96C77.9083 11.96 78.4083 11.72 78.7683 11.24C79.1283 10.76 79.3083 10.08 79.3083 9.2C79.3083 8.33333 79.1283 7.66 78.7683 7.18C78.4083 6.68667 77.9083 6.44 77.2683 6.44Z" fill="#403937"/>
</svg>
