<svg width="92" height="15" viewBox="0 0 92 15" fill="none" xmlns="http://www.w3.org/2000/svg">
<path d="M9.13141 10.98C8.98474 11.1 8.78474 11.2 8.53141 11.28C8.29141 11.36 8.01141 11.4 7.69141 11.4C7.27807 11.4 6.93141 11.3467 6.65141 11.24C6.37141 11.1333 6.19141 10.9533 6.11141 10.7C5.65807 9.43333 5.27141 8.38 4.95141 7.54C4.64474 6.7 4.40474 5.97333 4.23141 5.36H4.13141C4.09141 6.2 4.05807 6.96667 4.03141 7.66C4.00474 8.35333 3.98474 9.03333 3.97141 9.7C3.95807 10.3533 3.93807 11.02 3.91141 11.7C3.88474 12.38 3.84474 13.1267 3.79141 13.94C3.64474 13.98 3.44474 14.0267 3.19141 14.08C2.95141 14.1333 2.71141 14.16 2.47141 14.16C1.96474 14.16 1.56474 14.0733 1.27141 13.9C0.991406 13.7267 0.851406 13.4267 0.851406 13C0.851406 12.7067 0.86474 12.2733 0.891406 11.7C0.931406 11.1133 0.971406 10.4467 1.01141 9.7C1.06474 8.94 1.11141 8.14 1.15141 7.3C1.20474 6.46 1.25807 5.63333 1.31141 4.82C1.37807 3.99333 1.43807 3.23333 1.49141 2.54C1.59807 2.38 1.81141 2.22 2.13141 2.06C2.45141 1.88667 2.89141 1.8 3.45141 1.8C4.05141 1.8 4.53141 1.9 4.89141 2.1C5.26474 2.28667 5.53141 2.6 5.69141 3.04C5.89141 3.52 6.10474 4.08 6.33141 4.72C6.55807 5.34667 6.77807 5.98667 6.99141 6.64C7.21807 7.28 7.42474 7.86 7.61141 8.38H7.71141C8.08474 7.20667 8.46474 6.06 8.85141 4.94C9.25141 3.82 9.59141 2.88667 9.87141 2.14C10.0581 2.03333 10.2914 1.95333 10.5714 1.9C10.8647 1.83333 11.1714 1.8 11.4914 1.8C12.0647 1.8 12.5247 1.88667 12.8714 2.06C13.2314 2.22 13.4447 2.46667 13.5114 2.8C13.5647 3.05333 13.6181 3.45333 13.6714 4C13.7381 4.54667 13.8047 5.18 13.8714 5.9C13.9381 6.60667 14.0047 7.35333 14.0714 8.14C14.1381 8.91333 14.1981 9.67333 14.2514 10.42C14.3181 11.1533 14.3714 11.8133 14.4114 12.4C14.4514 12.9867 14.4781 13.4533 14.4914 13.8C14.2914 13.92 14.0781 14.0067 13.8514 14.06C13.6381 14.1267 13.3647 14.16 13.0314 14.16C12.6047 14.16 12.2381 14.08 11.9314 13.92C11.6381 13.76 11.4781 13.4533 11.4514 13C11.3847 11.96 11.3314 10.9733 11.2914 10.04C11.2514 9.09333 11.2181 8.23333 11.1914 7.46C11.1781 6.67333 11.1581 6 11.1314 5.44H11.0314C10.8581 6.01333 10.6114 6.74 10.2914 7.62C9.98474 8.48667 9.59807 9.60667 9.13141 10.98ZM20.6508 12.1C20.9574 12.1 21.2574 12.0733 21.5508 12.02C21.8574 11.9533 22.0774 11.88 22.2108 11.8V9.88L20.5308 10.04C20.0774 10.0667 19.7174 10.16 19.4508 10.32C19.1841 10.48 19.0508 10.72 19.0508 11.04C19.0508 11.36 19.1774 11.62 19.4308 11.82C19.6841 12.0067 20.0908 12.1 20.6508 12.1ZM20.5308 4.1C21.9174 4.1 23.0241 4.39333 23.8508 4.98C24.6774 5.55333 25.0908 6.44667 25.0908 7.66V12.2C25.0908 12.5333 25.0041 12.8067 24.8308 13.02C24.6574 13.22 24.4374 13.3933 24.1708 13.54C23.7708 13.78 23.2708 13.9667 22.6708 14.1C22.0841 14.2467 21.4108 14.32 20.6508 14.32C19.2908 14.32 18.2041 14.0533 17.3908 13.52C16.5908 12.9867 16.1908 12.1933 16.1908 11.14C16.1908 10.2333 16.4708 9.54 17.0308 9.06C17.5908 8.56667 18.4241 8.26667 19.5308 8.16L22.1908 7.88V7.64C22.1908 7.18667 22.0108 6.86 21.6508 6.66C21.3041 6.46 20.8041 6.36 20.1508 6.36C19.6441 6.36 19.1441 6.42 18.6508 6.54C18.1708 6.66 17.7374 6.8 17.3508 6.96C17.1908 6.85333 17.0508 6.69333 16.9308 6.48C16.8241 6.25333 16.7708 6.02 16.7708 5.78C16.7708 5.22 17.0774 4.81333 17.6908 4.56C18.0774 4.4 18.5241 4.28667 19.0308 4.22C19.5508 4.14 20.0508 4.1 20.5308 4.1ZM32.5548 6.46C31.8348 6.46 31.2148 6.7 30.6948 7.18C30.1882 7.64667 29.9348 8.33333 29.9348 9.24C29.9348 10.1333 30.1815 10.8067 30.6748 11.26C31.1682 11.7133 31.7882 11.94 32.5348 11.94C32.9748 11.94 33.3548 11.8867 33.6748 11.78C34.0082 11.66 34.2948 11.5333 34.5348 11.4C34.7615 11.56 34.9348 11.74 35.0548 11.94C35.1748 12.1267 35.2348 12.36 35.2348 12.64C35.2348 13.1333 34.9682 13.5333 34.4348 13.84C33.9015 14.1467 33.1615 14.3 32.2148 14.3C31.1615 14.3 30.2348 14.1133 29.4348 13.74C28.6348 13.3533 28.0148 12.78 27.5748 12.02C27.1348 11.26 26.9148 10.3333 26.9148 9.24C26.9148 8.08 27.1548 7.12667 27.6348 6.38C28.1148 5.62 28.7482 5.05333 29.5348 4.68C30.3348 4.29333 31.2015 4.1 32.1348 4.1C33.0548 4.1 33.7748 4.26667 34.2948 4.6C34.8282 4.93333 35.0948 5.34667 35.0948 5.84C35.0948 6.08 35.0348 6.3 34.9148 6.5C34.8082 6.68667 34.6815 6.85333 34.5348 7C34.2815 6.86667 33.9882 6.74667 33.6548 6.64C33.3348 6.52 32.9682 6.46 32.5548 6.46ZM42.008 6.46C41.288 6.46 40.668 6.7 40.148 7.18C39.6413 7.64667 39.388 8.33333 39.388 9.24C39.388 10.1333 39.6346 10.8067 40.128 11.26C40.6213 11.7133 41.2413 11.94 41.988 11.94C42.428 11.94 42.808 11.8867 43.128 11.78C43.4613 11.66 43.748 11.5333 43.988 11.4C44.2146 11.56 44.388 11.74 44.508 11.94C44.628 12.1267 44.688 12.36 44.688 12.64C44.688 13.1333 44.4213 13.5333 43.888 13.84C43.3546 14.1467 42.6146 14.3 41.668 14.3C40.6146 14.3 39.688 14.1133 38.888 13.74C38.088 13.3533 37.468 12.78 37.028 12.02C36.588 11.26 36.368 10.3333 36.368 9.24C36.368 8.08 36.608 7.12667 37.088 6.38C37.568 5.62 38.2013 5.05333 38.988 4.68C39.788 4.29333 40.6546 4.1 41.588 4.1C42.508 4.1 43.228 4.26667 43.748 4.6C44.2813 4.93333 44.548 5.34667 44.548 5.84C44.548 6.08 44.488 6.3 44.368 6.5C44.2613 6.68667 44.1346 6.85333 43.988 7C43.7346 6.86667 43.4413 6.74667 43.108 6.64C42.788 6.52 42.4213 6.46 42.008 6.46ZM55.7745 9.92H52.7945V8.14C52.7945 7.52667 52.6345 7.09333 52.3145 6.84C52.0079 6.57333 51.6145 6.44 51.1345 6.44C50.7079 6.44 50.3212 6.52 49.9745 6.68C49.6412 6.84 49.3545 7.02 49.1145 7.22L49.0345 4.82C49.3412 4.64667 49.7212 4.48667 50.1745 4.34C50.6279 4.18 51.1279 4.1 51.6745 4.1C52.9412 4.1 53.9412 4.42667 54.6745 5.08C55.4079 5.72 55.7745 6.68667 55.7745 7.98V9.92ZM46.5945 8.72H49.5545V13.98C49.4212 14.02 49.2345 14.0533 48.9945 14.08C48.7545 14.12 48.4945 14.14 48.2145 14.14C47.6545 14.14 47.2412 14.04 46.9745 13.84C46.7212 13.64 46.5945 13.28 46.5945 12.76V8.72ZM52.7945 8.72H55.7745V13.98C55.6412 14.02 55.4545 14.0533 55.2145 14.08C54.9745 14.12 54.7145 14.14 54.4345 14.14C53.8612 14.14 53.4412 14.04 53.1745 13.84C52.9212 13.64 52.7945 13.28 52.7945 12.76V8.72ZM49.5545 10.26H46.5945V0.98C46.7145 0.939999 46.8945 0.899999 47.1345 0.86C47.3745 0.82 47.6345 0.799999 47.9145 0.799999C48.4879 0.799999 48.9012 0.899999 49.1545 1.1C49.4212 1.3 49.5545 1.66667 49.5545 2.2V10.26ZM57.9975 1.64C57.9975 1.18667 58.1508 0.806666 58.4575 0.5C58.7775 0.193333 59.1775 0.0399997 59.6575 0.0399997C60.1508 0.0399997 60.5508 0.193333 60.8575 0.5C61.1642 0.806666 61.3175 1.18667 61.3175 1.64C61.3175 2.08 61.1642 2.46 60.8575 2.78C60.5508 3.1 60.1508 3.26 59.6575 3.26C59.1775 3.26 58.7775 3.1 58.4575 2.78C58.1508 2.46 57.9975 2.08 57.9975 1.64ZM58.1775 8.72H61.1375V13.98C61.0175 14.02 60.8375 14.0533 60.5975 14.08C60.3575 14.12 60.0975 14.14 59.8175 14.14C59.2442 14.14 58.8242 14.04 58.5575 13.84C58.3042 13.64 58.1775 13.28 58.1775 12.76V8.72ZM61.1375 10.26H58.1775V4.52C58.2975 4.48 58.4775 4.44 58.7175 4.4C58.9708 4.36 59.2375 4.34 59.5175 4.34C60.0908 4.34 60.5042 4.44 60.7575 4.64C61.0108 4.82667 61.1375 5.19333 61.1375 5.74V10.26ZM67.4867 12.1C67.7934 12.1 68.0934 12.0733 68.3867 12.02C68.6934 11.9533 68.9134 11.88 69.0467 11.8V9.88L67.3667 10.04C66.9134 10.0667 66.5534 10.16 66.2867 10.32C66.0201 10.48 65.8867 10.72 65.8867 11.04C65.8867 11.36 66.0134 11.62 66.2667 11.82C66.5201 12.0067 66.9267 12.1 67.4867 12.1ZM67.3667 4.1C68.7534 4.1 69.8601 4.39333 70.6867 4.98C71.5134 5.55333 71.9267 6.44667 71.9267 7.66V12.2C71.9267 12.5333 71.8401 12.8067 71.6667 13.02C71.4934 13.22 71.2734 13.3933 71.0067 13.54C70.6067 13.78 70.1067 13.9667 69.5067 14.1C68.9201 14.2467 68.2467 14.32 67.4867 14.32C66.1267 14.32 65.0401 14.0533 64.2267 13.52C63.4267 12.9867 63.0267 12.1933 63.0267 11.14C63.0267 10.2333 63.3067 9.54 63.8667 9.06C64.4267 8.56667 65.2601 8.26667 66.3667 8.16L69.0267 7.88V7.64C69.0267 7.18667 68.8467 6.86 68.4867 6.66C68.1401 6.46 67.6401 6.36 66.9867 6.36C66.4801 6.36 65.9801 6.42 65.4867 6.54C65.0067 6.66 64.5734 6.8 64.1867 6.96C64.0267 6.85333 63.8867 6.69333 63.7667 6.48C63.6601 6.25333 63.6067 6.02 63.6067 5.78C63.6067 5.22 63.9134 4.81333 64.5267 4.56C64.9134 4.4 65.3601 4.28667 65.8667 4.22C66.3867 4.14 66.8867 4.1 67.3667 4.1ZM74.2308 8.72H77.1708V10.86C77.1708 11.2333 77.2908 11.5067 77.5308 11.68C77.7708 11.8533 78.1108 11.94 78.5508 11.94C78.7508 11.94 78.9641 11.92 79.1908 11.88C79.4308 11.8267 79.6308 11.7667 79.7908 11.7C79.8974 11.82 79.9908 11.9667 80.0708 12.14C80.1641 12.3133 80.2108 12.5133 80.2108 12.74C80.2108 13.1933 80.0241 13.5667 79.6508 13.86C79.2774 14.1533 78.6508 14.3 77.7708 14.3C76.6508 14.3 75.7774 14.0467 75.1508 13.54C74.5374 13.0333 74.2308 12.2067 74.2308 11.06V8.72ZM76.1108 6.9V4.62H79.9508C80.0174 4.72667 80.0841 4.88 80.1508 5.08C80.2174 5.28 80.2508 5.5 80.2508 5.74C80.2508 6.14 80.1574 6.43333 79.9708 6.62C79.7974 6.80667 79.5574 6.9 79.2508 6.9H76.1108ZM77.1708 9.22H74.2308V2.04C74.3641 2 74.5508 1.96 74.7908 1.92C75.0308 1.86667 75.2841 1.84 75.5508 1.84C76.1241 1.84 76.5374 1.94 76.7908 2.14C77.0441 2.34 77.1708 2.70667 77.1708 3.24V9.22ZM91.6061 9.2C91.6061 10.24 91.3928 11.1467 90.9661 11.92C90.5528 12.68 89.9661 13.2667 89.2061 13.68C88.4461 14.0933 87.5528 14.3 86.5261 14.3C85.5128 14.3 84.6194 14.1 83.8461 13.7C83.0861 13.2867 82.4928 12.7 82.0661 11.94C81.6528 11.1667 81.4461 10.2533 81.4461 9.2C81.4461 8.14667 81.6594 7.24667 82.0861 6.5C82.5128 5.74 83.1061 5.15333 83.8661 4.74C84.6394 4.31333 85.5261 4.1 86.5261 4.1C87.5394 4.1 88.4261 4.31333 89.1861 4.74C89.9461 5.15333 90.5394 5.74667 90.9661 6.52C91.3928 7.28 91.6061 8.17333 91.6061 9.2ZM86.5261 6.44C85.8994 6.44 85.3994 6.68 85.0261 7.16C84.6661 7.64 84.4861 8.32 84.4861 9.2C84.4861 10.0933 84.6661 10.78 85.0261 11.26C85.3861 11.7267 85.8861 11.96 86.5261 11.96C87.1661 11.96 87.6661 11.72 88.0261 11.24C88.3861 10.76 88.5661 10.08 88.5661 9.2C88.5661 8.33333 88.3861 7.66 88.0261 7.18C87.6661 6.68667 87.1661 6.44 86.5261 6.44Z" fill="#403937"/>
</svg>
